<svg width="40" height="56" viewBox="0 0 40 56" fill="none" xmlns="http://www.w3.org/2000/svg">
<path d="M16.478 0.307996C21.106 0.307996 24.98 0.749997 28.1 1.634C31.272 2.518 33.638 3.974 35.198 6.002C36.81 8.03 37.616 10.734 37.616 14.114C37.616 16.298 37.2 18.248 36.368 19.964C35.588 21.628 34.392 23.032 32.78 24.176C31.22 25.268 29.296 26.022 27.008 26.438V26.828C29.348 27.192 31.454 27.868 33.326 28.856C35.25 29.844 36.758 31.248 37.85 33.068C38.942 34.888 39.488 37.254 39.488 40.166C39.488 43.546 38.708 46.432 37.148 48.824C35.588 51.164 33.352 52.958 30.44 54.206C27.58 55.402 24.148 56 20.144 56H0.566V0.307996H16.478ZM17.882 24.02C22.666 24.02 25.942 23.266 27.71 21.758C29.478 20.198 30.362 17.91 30.362 14.894C30.362 11.826 29.27 9.642 27.086 8.342C24.954 6.99 21.522 6.314 16.79 6.314H7.586V24.02H17.882ZM7.586 29.87V50.072H18.818C23.758 50.072 27.19 49.11 29.114 47.186C31.038 45.262 32 42.74 32 39.62C32 37.644 31.558 35.928 30.674 34.472C29.842 33.016 28.412 31.898 26.384 31.118C24.408 30.286 21.704 29.87 18.272 29.87H7.586Z" fill="white"/>
<path d="M28.1 1.634L27.8274 2.59613L27.8315 2.59729L28.1 1.634ZM35.198 6.002L34.4054 6.61171L34.4102 6.61801L34.4152 6.62424L35.198 6.002ZM36.368 19.964L35.4681 19.5277L35.4625 19.5396L36.368 19.964ZM32.78 24.176L33.3535 24.9952L33.3588 24.9915L32.78 24.176ZM27.008 26.438L26.8291 25.4541L26.008 25.6034V26.438H27.008ZM27.008 26.828H26.008V27.6845L26.8543 27.8161L27.008 26.828ZM33.326 28.856L32.8592 29.7404L32.8692 29.7456L33.326 28.856ZM37.85 33.068L38.7075 32.5535L38.7075 32.5535L37.85 33.068ZM37.148 48.824L37.9801 49.3787L37.9856 49.3703L37.148 48.824ZM30.44 54.206L30.8258 55.1286L30.8339 55.1251L30.44 54.206ZM0.566 56H-0.434V57H0.566V56ZM0.566 0.307996V-0.692004H-0.434V0.307996H0.566ZM27.71 21.758L28.3589 22.5188L28.3653 22.5134L28.3716 22.5078L27.71 21.758ZM27.086 8.342L26.5505 9.18651L26.5624 9.19407L26.5745 9.20129L27.086 8.342ZM7.586 6.314V5.314H6.586V6.314H7.586ZM7.586 24.02H6.586V25.02H7.586V24.02ZM7.586 29.87V28.87H6.586V29.87H7.586ZM7.586 50.072H6.586V51.072H7.586V50.072ZM29.114 47.186L29.8211 47.8931L29.8211 47.8931L29.114 47.186ZM30.674 34.472L29.8058 34.9681L29.8123 34.9796L29.8192 34.991L30.674 34.472ZM26.384 31.118L25.9959 32.0396L26.0104 32.0457L26.025 32.0513L26.384 31.118ZM16.478 1.308C21.0496 1.308 24.825 1.74543 27.8274 2.59612L28.3726 0.671871C25.135 -0.245439 21.1624 -0.692004 16.478 -0.692004V1.308ZM27.8315 2.59729C30.8553 3.43997 33.0108 4.79878 34.4054 6.61171L35.9906 5.39229C34.2652 3.14922 31.6887 1.59602 28.3685 0.670707L27.8315 2.59729ZM34.4152 6.62424C35.8487 8.42773 36.616 10.8906 36.616 14.114H38.616C38.616 10.5774 37.7713 7.63226 35.9808 5.37975L34.4152 6.62424ZM36.616 14.114C36.616 16.1689 36.2253 17.9662 35.4682 19.5277L37.2678 20.4003C38.1747 18.5298 38.616 16.4271 38.616 14.114H36.616ZM35.4625 19.5396C34.7614 21.0354 33.6834 22.3087 32.2013 23.3605L33.3588 24.9915C35.1006 23.7553 36.4146 22.2206 37.2735 20.3884L35.4625 19.5396ZM32.2065 23.3568C30.7878 24.3499 29.006 25.0583 26.8291 25.4541L27.1869 27.4219C29.586 26.9857 31.6522 26.1861 33.3535 24.9952L32.2065 23.3568ZM26.008 26.438V26.828H28.008V26.438H26.008ZM26.8543 27.8161C29.0978 28.1651 31.096 28.8098 32.8592 29.7404L33.7928 27.9716C31.812 26.9262 29.5982 26.2189 27.1617 25.8399L26.8543 27.8161ZM32.8692 29.7456C34.6306 30.6501 35.9984 31.9256 36.9925 33.5825L38.7075 32.5535C37.5176 30.5704 35.8694 29.0379 33.7828 27.9664L32.8692 29.7456ZM36.9925 33.5825C37.9628 35.1996 38.488 37.3705 38.488 40.166H40.488C40.488 37.1375 39.9212 34.5764 38.7075 32.5535L36.9925 33.5825ZM38.488 40.166C38.488 43.3882 37.7462 46.0761 36.3104 48.2777L37.9856 49.3703C39.6698 46.7879 40.488 43.7038 40.488 40.166H38.488ZM36.316 48.2693C34.8768 50.428 32.8031 52.1053 30.0461 53.2869L30.8339 55.1251C33.9009 53.8107 36.2992 51.9 37.9801 49.3787L36.316 48.2693ZM30.0542 53.2834C27.3464 54.4158 24.0525 55 20.144 55V57C24.2435 57 27.8136 56.3882 30.8258 55.1286L30.0542 53.2834ZM20.144 55H0.566V57H20.144V55ZM1.566 56V0.307996H-0.434V56H1.566ZM0.566 1.308H16.478V-0.692004H0.566V1.308ZM17.882 25.02C22.6931 25.02 26.2967 24.2778 28.3589 22.5188L27.0611 20.9972C25.5873 22.2542 22.6389 23.02 17.882 23.02V25.02ZM28.3716 22.5078C30.4116 20.7079 31.362 18.1113 31.362 14.894H29.362C29.362 17.7087 28.5444 19.6881 27.0484 21.0082L28.3716 22.5078ZM31.362 14.894C31.362 11.559 30.1513 9.00284 27.5975 7.48271L26.5745 9.20129C28.3887 10.2812 29.362 12.093 29.362 14.894H31.362ZM27.6215 7.49749C25.2419 5.98844 21.571 5.314 16.79 5.314V7.314C21.4731 7.314 24.6661 7.99156 26.5505 9.18651L27.6215 7.49749ZM16.79 5.314H7.586V7.314H16.79V5.314ZM6.586 6.314V24.02H8.586V6.314H6.586ZM7.586 25.02H17.882V23.02H7.586V25.02ZM6.586 29.87V50.072H8.586V29.87H6.586ZM7.586 51.072H18.818V49.072H7.586V51.072ZM18.818 51.072C23.8265 51.072 27.6055 50.1087 29.8211 47.8931L28.4069 46.4789C26.7745 48.1113 23.6895 49.072 18.818 49.072V51.072ZM29.8211 47.8931C31.9605 45.7537 33 42.963 33 39.62H31C31 42.517 30.1155 44.7703 28.4069 46.4789L29.8211 47.8931ZM33 39.62C33 37.4907 32.5221 35.5891 31.5288 33.953L29.8192 34.991C30.5939 36.2669 31 37.7973 31 39.62H33ZM31.5422 33.9759C30.5658 32.2671 28.9216 31.0226 26.743 30.1847L26.025 32.0513C27.9024 32.7734 29.1182 33.7649 29.8058 34.9681L31.5422 33.9759ZM26.7721 30.1964C24.6215 29.2909 21.7666 28.87 18.272 28.87V30.87C21.6414 30.87 24.1945 31.2811 25.9959 32.0396L26.7721 30.1964ZM18.272 28.87H7.586V30.87H18.272V28.87Z" fill="white"/>
</svg>
