<svg width="213" height="75" viewBox="0 0 213 75" fill="none" xmlns="http://www.w3.org/2000/svg">
<path d="M16.478 0.307996C21.106 0.307996 24.98 0.749997 28.1 1.634C31.272 2.518 33.638 3.974 35.198 6.002C36.81 8.03 37.616 10.734 37.616 14.114C37.616 16.298 37.2 18.248 36.368 19.964C35.588 21.628 34.392 23.032 32.78 24.176C31.22 25.268 29.296 26.022 27.008 26.438V26.828C29.348 27.192 31.454 27.868 33.326 28.856C35.25 29.844 36.758 31.248 37.85 33.068C38.942 34.888 39.488 37.254 39.488 40.166C39.488 43.546 38.708 46.432 37.148 48.824C35.588 51.164 33.352 52.958 30.44 54.206C27.58 55.402 24.148 56 20.144 56H0.566V0.307996H16.478ZM17.882 24.02C22.666 24.02 25.942 23.266 27.71 21.758C29.478 20.198 30.362 17.91 30.362 14.894C30.362 11.826 29.27 9.642 27.086 8.342C24.954 6.99 21.522 6.314 16.79 6.314H7.586V24.02H17.882ZM7.586 29.87V50.072H18.818C23.758 50.072 27.19 49.11 29.114 47.186C31.038 45.262 32 42.74 32 39.62C32 37.644 31.558 35.928 30.674 34.472C29.842 33.016 28.412 31.898 26.384 31.118C24.408 30.286 21.704 29.87 18.272 29.87H7.586ZM43.8085 14.192H51.1405L60.1885 37.982C60.7085 39.386 61.1765 40.738 61.5925 42.038C62.0605 43.338 62.4765 44.612 62.8405 45.86C63.2045 47.056 63.4905 48.226 63.6985 49.37H64.0105C64.3225 48.07 64.8165 46.38 65.4925 44.3C66.1685 42.168 66.8705 40.036 67.5985 37.904L76.1005 14.192H83.5105L65.4925 61.772C64.5045 64.372 63.3345 66.634 61.9825 68.558C60.6825 70.534 59.0705 72.042 57.1465 73.082C55.2745 74.174 52.9865 74.72 50.2825 74.72C49.0345 74.72 47.9425 74.642 47.0065 74.486C46.0705 74.382 45.2645 74.252 44.5885 74.096V68.636C45.1605 68.74 45.8365 68.844 46.6165 68.948C47.4485 69.052 48.3065 69.104 49.1905 69.104C50.8025 69.104 52.1805 68.792 53.3245 68.168C54.5205 67.596 55.5345 66.738 56.3665 65.594C57.1985 64.502 57.9005 63.202 58.4725 61.694L60.6565 56.156L43.8085 14.192ZM85.9851 51.788C85.9851 49.864 86.4531 48.512 87.3891 47.732C88.3251 46.952 89.4431 46.562 90.7431 46.562C92.0951 46.562 93.2391 46.952 94.1751 47.732C95.1631 48.512 95.6571 49.864 95.6571 51.788C95.6571 53.66 95.1631 55.012 94.1751 55.844C93.2391 56.676 92.0951 57.092 90.7431 57.092C89.4431 57.092 88.3251 56.676 87.3891 55.844C86.4531 55.012 85.9851 53.66 85.9851 51.788ZM133.376 56L115.046 7.172H114.734C114.838 8.212 114.916 9.538 114.968 11.15C115.072 12.762 115.15 14.53 115.202 16.454C115.254 18.326 115.28 20.25 115.28 22.226V56H108.806V0.307996H119.18L136.34 45.938H136.652L154.124 0.307996H164.42V56H157.478V21.758C157.478 19.938 157.504 18.144 157.556 16.376C157.608 14.556 157.686 12.866 157.79 11.306C157.894 9.694 157.972 8.342 158.024 7.25H157.712L139.148 56H133.376ZM194.78 13.412C198.368 13.412 201.436 14.192 203.984 15.752C206.584 17.312 208.56 19.522 209.912 22.382C211.316 25.19 212.018 28.492 212.018 32.288V36.422H183.392C183.496 41.154 184.692 44.768 186.98 47.264C189.32 49.708 192.57 50.93 196.73 50.93C199.382 50.93 201.722 50.696 203.75 50.228C205.83 49.708 207.962 48.98 210.146 48.044V54.05C208.014 54.986 205.908 55.662 203.828 56.078C201.748 56.546 199.278 56.78 196.418 56.78C192.466 56.78 188.956 55.974 185.888 54.362C182.872 52.75 180.506 50.358 178.79 47.186C177.126 43.962 176.294 40.036 176.294 35.408C176.294 30.832 177.048 26.906 178.556 23.63C180.116 20.354 182.274 17.832 185.03 16.064C187.838 14.296 191.088 13.412 194.78 13.412ZM194.702 19.028C191.426 19.028 188.826 20.094 186.902 22.226C185.03 24.306 183.912 27.218 183.548 30.962H204.842C204.842 28.57 204.478 26.49 203.75 24.722C203.022 22.954 201.904 21.576 200.396 20.588C198.94 19.548 197.042 19.028 194.702 19.028Z" fill="white"/>
<path d="M28.1 1.634L27.8274 2.59613L27.8315 2.59729L28.1 1.634ZM35.198 6.002L34.4054 6.61171L34.4102 6.61801L34.4152 6.62424L35.198 6.002ZM36.368 19.964L35.4681 19.5277L35.4625 19.5396L36.368 19.964ZM32.78 24.176L33.3535 24.9952L33.3588 24.9915L32.78 24.176ZM27.008 26.438L26.8291 25.4541L26.008 25.6034V26.438H27.008ZM27.008 26.828H26.008V27.6845L26.8543 27.8161L27.008 26.828ZM33.326 28.856L32.8592 29.7404L32.8692 29.7456L33.326 28.856ZM37.85 33.068L38.7075 32.5535L38.7075 32.5535L37.85 33.068ZM37.148 48.824L37.9801 49.3787L37.9856 49.3703L37.148 48.824ZM30.44 54.206L30.8258 55.1286L30.8339 55.1251L30.44 54.206ZM0.566 56H-0.434V57H0.566V56ZM0.566 0.307996V-0.692004H-0.434V0.307996H0.566ZM27.71 21.758L28.3589 22.5188L28.3653 22.5134L28.3716 22.5078L27.71 21.758ZM27.086 8.342L26.5505 9.18651L26.5624 9.19407L26.5745 9.20129L27.086 8.342ZM7.586 6.314V5.314H6.586V6.314H7.586ZM7.586 24.02H6.586V25.02H7.586V24.02ZM7.586 29.87V28.87H6.586V29.87H7.586ZM7.586 50.072H6.586V51.072H7.586V50.072ZM29.114 47.186L29.8211 47.8931L29.8211 47.8931L29.114 47.186ZM30.674 34.472L29.8058 34.9681L29.8123 34.9796L29.8192 34.991L30.674 34.472ZM26.384 31.118L25.9959 32.0396L26.0104 32.0457L26.025 32.0513L26.384 31.118ZM16.478 1.308C21.0496 1.308 24.825 1.74543 27.8274 2.59612L28.3726 0.671871C25.135 -0.245439 21.1624 -0.692004 16.478 -0.692004V1.308ZM27.8315 2.59729C30.8553 3.43997 33.0108 4.79878 34.4054 6.61171L35.9906 5.39229C34.2652 3.14922 31.6887 1.59602 28.3685 0.670707L27.8315 2.59729ZM34.4152 6.62424C35.8487 8.42773 36.616 10.8906 36.616 14.114H38.616C38.616 10.5774 37.7713 7.63226 35.9808 5.37975L34.4152 6.62424ZM36.616 14.114C36.616 16.1689 36.2253 17.9662 35.4682 19.5277L37.2678 20.4003C38.1747 18.5298 38.616 16.4271 38.616 14.114H36.616ZM35.4625 19.5396C34.7614 21.0354 33.6834 22.3087 32.2013 23.3605L33.3588 24.9915C35.1006 23.7553 36.4146 22.2206 37.2735 20.3884L35.4625 19.5396ZM32.2065 23.3568C30.7878 24.3499 29.006 25.0583 26.8291 25.4541L27.1869 27.4219C29.586 26.9857 31.6522 26.1861 33.3535 24.9952L32.2065 23.3568ZM26.008 26.438V26.828H28.008V26.438H26.008ZM26.8543 27.8161C29.0978 28.1651 31.096 28.8098 32.8592 29.7404L33.7928 27.9716C31.812 26.9262 29.5982 26.2189 27.1617 25.8399L26.8543 27.8161ZM32.8692 29.7456C34.6306 30.6501 35.9984 31.9256 36.9925 33.5825L38.7075 32.5535C37.5176 30.5704 35.8694 29.0379 33.7828 27.9664L32.8692 29.7456ZM36.9925 33.5825C37.9628 35.1996 38.488 37.3705 38.488 40.166H40.488C40.488 37.1375 39.9212 34.5764 38.7075 32.5535L36.9925 33.5825ZM38.488 40.166C38.488 43.3882 37.7462 46.0761 36.3104 48.2777L37.9856 49.3703C39.6698 46.7879 40.488 43.7038 40.488 40.166H38.488ZM36.316 48.2693C34.8768 50.428 32.8031 52.1053 30.0461 53.2869L30.8339 55.1251C33.9009 53.8107 36.2992 51.9 37.9801 49.3787L36.316 48.2693ZM30.0542 53.2834C27.3464 54.4158 24.0525 55 20.144 55V57C24.2435 57 27.8136 56.3882 30.8258 55.1286L30.0542 53.2834ZM20.144 55H0.566V57H20.144V55ZM1.566 56V0.307996H-0.434V56H1.566ZM0.566 1.308H16.478V-0.692004H0.566V1.308ZM17.882 25.02C22.6931 25.02 26.2967 24.2778 28.3589 22.5188L27.0611 20.9972C25.5873 22.2542 22.6389 23.02 17.882 23.02V25.02ZM28.3716 22.5078C30.4116 20.7079 31.362 18.1113 31.362 14.894H29.362C29.362 17.7087 28.5444 19.6881 27.0484 21.0082L28.3716 22.5078ZM31.362 14.894C31.362 11.559 30.1513 9.00284 27.5975 7.48271L26.5745 9.20129C28.3887 10.2812 29.362 12.093 29.362 14.894H31.362ZM27.6215 7.49749C25.2419 5.98844 21.571 5.314 16.79 5.314V7.314C21.4731 7.314 24.6661 7.99156 26.5505 9.18651L27.6215 7.49749ZM16.79 5.314H7.586V7.314H16.79V5.314ZM6.586 6.314V24.02H8.586V6.314H6.586ZM7.586 25.02H17.882V23.02H7.586V25.02ZM6.586 29.87V50.072H8.586V29.87H6.586ZM7.586 51.072H18.818V49.072H7.586V51.072ZM18.818 51.072C23.8265 51.072 27.6055 50.1087 29.8211 47.8931L28.4069 46.4789C26.7745 48.1113 23.6895 49.072 18.818 49.072V51.072ZM29.8211 47.8931C31.9605 45.7537 33 42.963 33 39.62H31C31 42.517 30.1155 44.7703 28.4069 46.4789L29.8211 47.8931ZM33 39.62C33 37.4907 32.5221 35.5891 31.5288 33.953L29.8192 34.991C30.5939 36.2669 31 37.7973 31 39.62H33ZM31.5422 33.9759C30.5658 32.2671 28.9216 31.0226 26.743 30.1847L26.025 32.0513C27.9024 32.7734 29.1182 33.7649 29.8058 34.9681L31.5422 33.9759ZM26.7721 30.1964C24.6215 29.2909 21.7666 28.87 18.272 28.87V30.87C21.6414 30.87 24.1945 31.2811 25.9959 32.0396L26.7721 30.1964ZM18.272 28.87H7.586V30.87H18.272V28.87ZM43.8085 14.192V13.192H42.3294L42.8805 14.5646L43.8085 14.192ZM51.1405 14.192L52.0752 13.8365L51.83 13.192H51.1405V14.192ZM60.1885 37.982L61.1263 37.6347L61.1232 37.6265L60.1885 37.982ZM61.5925 42.038L60.64 42.3428L60.6455 42.3599L60.6516 42.3767L61.5925 42.038ZM62.8405 45.86L61.8804 46.14L61.8838 46.1512L62.8405 45.86ZM63.6985 49.37L62.7146 49.5489L62.8639 50.37H63.6985V49.37ZM64.0105 49.37V50.37H64.7989L64.9829 49.6034L64.0105 49.37ZM65.4925 44.3L66.4435 44.6091L66.4457 44.6022L65.4925 44.3ZM67.5985 37.904L66.6571 37.5665L66.6546 37.5737L66.6521 37.5809L67.5985 37.904ZM76.1005 14.192V13.192H75.3967L75.1591 13.8545L76.1005 14.192ZM83.5105 14.192L84.4457 14.5461L84.9585 13.192H83.5105V14.192ZM65.4925 61.772L66.4273 62.1272L66.4277 62.1261L65.4925 61.772ZM61.9825 68.558L61.1643 67.9831L61.1555 67.9956L61.1471 68.0084L61.9825 68.558ZM57.1465 73.082L56.671 72.2023L56.6566 72.21L56.6426 72.2182L57.1465 73.082ZM47.0065 74.486L47.1709 73.4996L47.144 73.4951L47.1169 73.4921L47.0065 74.486ZM44.5885 74.096H43.5885V74.8915L44.3636 75.0704L44.5885 74.096ZM44.5885 68.636L44.7674 67.6521L43.5885 67.4378V68.636H44.5885ZM46.6165 68.948L46.4843 69.9393L46.4924 69.9403L46.6165 68.948ZM53.3245 68.168L52.893 67.2659L52.869 67.2774L52.8456 67.2901L53.3245 68.168ZM56.3665 65.594L55.571 64.988L55.5643 64.9968L55.5577 65.0058L56.3665 65.594ZM58.4725 61.694L57.5421 61.3271L57.5375 61.3393L58.4725 61.694ZM60.6565 56.156L61.5867 56.5229L61.7327 56.1527L61.5845 55.7834L60.6565 56.156ZM43.8085 15.192H51.1405V13.192H43.8085V15.192ZM50.2058 14.5475L59.2538 38.3375L61.1232 37.6265L52.0752 13.8365L50.2058 14.5475ZM59.2507 38.3293C59.766 39.7206 60.229 41.0584 60.64 42.3428L62.5449 41.7332C62.1239 40.4176 61.6509 39.0514 61.1262 37.6347L59.2507 38.3293ZM60.6516 42.3767C61.113 43.6585 61.5226 44.913 61.8805 46.14L63.8005 45.58C63.4304 44.311 63.0079 43.0175 62.5334 41.6993L60.6516 42.3767ZM61.8838 46.1512C62.2374 47.313 62.514 48.4455 62.7146 49.5489L64.6823 49.1911C64.467 48.0065 64.1715 46.799 63.7971 45.5688L61.8838 46.1512ZM63.6985 50.37H64.0105V48.37H63.6985V50.37ZM64.9829 49.6034C65.2861 48.3397 65.7712 46.6776 66.4435 44.6091L64.5414 43.9909C63.8617 46.0824 63.3588 47.8003 63.0381 49.1366L64.9829 49.6034ZM66.4457 44.6022C67.1195 42.4773 67.8192 40.3523 68.5448 38.2271L66.6521 37.5809C65.9218 39.7197 65.2175 41.8587 64.5392 43.9978L66.4457 44.6022ZM68.5398 38.2415L77.0418 14.5295L75.1591 13.8545L66.6571 37.5665L68.5398 38.2415ZM76.1005 15.192H83.5105V13.192H76.1005V15.192ZM82.5753 13.8379L64.5573 61.4179L66.4277 62.1261L84.4457 14.5461L82.5753 13.8379ZM64.5577 61.4168C63.594 63.9527 62.4607 66.1382 61.1643 67.9831L62.8007 69.1329C64.2083 67.1298 65.4149 64.7913 66.4273 62.1272L64.5577 61.4168ZM61.1471 68.0084C59.9303 69.8578 58.4379 71.2472 56.671 72.2023L57.622 73.9617C59.7031 72.8368 61.4346 71.2102 62.8179 69.1076L61.1471 68.0084ZM56.6426 72.2182C54.9571 73.2014 52.8528 73.72 50.2825 73.72V75.72C53.1201 75.72 55.5918 75.1466 57.6503 73.9458L56.6426 72.2182ZM50.2825 73.72C49.0735 73.72 48.0387 73.6442 47.1709 73.4996L46.8421 75.4724C47.8463 75.6398 48.9955 75.72 50.2825 75.72V73.72ZM47.1169 73.4921C46.2068 73.391 45.441 73.2665 44.8133 73.1216L44.3636 75.0704C45.0879 75.2375 45.9341 75.373 46.896 75.4799L47.1169 73.4921ZM45.5885 74.096V68.636H43.5885V74.096H45.5885ZM44.4096 69.6199C45.0014 69.7275 45.6937 69.8338 46.4843 69.9392L46.7486 67.9568C45.9792 67.8542 45.3195 67.7525 44.7674 67.6521L44.4096 69.6199ZM46.4924 69.9403C47.3677 70.0497 48.2672 70.104 49.1905 70.104V68.104C48.3457 68.104 47.5292 68.0543 46.7405 67.9557L46.4924 69.9403ZM49.1905 70.104C50.9307 70.104 52.4815 69.7669 53.8033 69.0459L52.8456 67.2901C51.8794 67.8171 50.6743 68.104 49.1905 68.104V70.104ZM53.7559 69.0701C55.1118 68.4217 56.2522 67.4513 57.1752 66.1822L55.5577 65.0058C54.8167 66.0247 53.9291 66.7703 52.893 67.2659L53.7559 69.0701ZM57.1619 66.2C58.0614 65.0194 58.8071 63.6314 59.4075 62.0487L57.5375 61.3393C56.9938 62.7726 56.3355 63.9846 55.571 64.988L57.1619 66.2ZM59.4027 62.0609L61.5867 56.5229L59.7262 55.7891L57.5422 61.3271L59.4027 62.0609ZM61.5845 55.7834L44.7365 13.8194L42.8805 14.5646L59.7285 56.5286L61.5845 55.7834ZM94.1751 47.732L93.535 48.5002L93.5451 48.5087L93.5555 48.5169L94.1751 47.732ZM94.1751 55.844L93.531 55.0791L93.5208 55.0877L93.5108 55.0966L94.1751 55.844ZM87.3891 55.844L86.7248 56.5914L87.3891 55.844ZM86.9851 51.788C86.9851 49.9895 87.4264 49.0027 88.0293 48.5002L86.749 46.9638C85.4799 48.0213 84.9851 49.7385 84.9851 51.788H86.9851ZM88.0293 48.5002C88.773 47.8805 89.6602 47.562 90.7431 47.562V45.562C89.2261 45.562 87.8772 46.0235 86.749 46.9638L88.0293 48.5002ZM90.7431 47.562C91.8886 47.562 92.7986 47.8866 93.535 48.5002L94.8153 46.9638C93.6796 46.0174 92.3017 45.562 90.7431 45.562V47.562ZM93.5555 48.5169C94.1983 49.0244 94.6571 50.0052 94.6571 51.788H96.6571C96.6571 49.7228 96.128 47.9996 94.7948 46.9471L93.5555 48.5169ZM94.6571 51.788C94.6571 53.5015 94.2065 54.5103 93.531 55.0791L94.8193 56.6089C96.1198 55.5137 96.6571 53.8185 96.6571 51.788H94.6571ZM93.5108 55.0966C92.773 55.7524 91.8714 56.092 90.7431 56.092V58.092C92.3189 58.092 93.7052 57.5996 94.8395 56.5914L93.5108 55.0966ZM90.7431 56.092C89.6778 56.092 88.799 55.7592 88.0535 55.0966L86.7248 56.5914C87.8513 57.5928 89.2085 58.092 90.7431 58.092V56.092ZM88.0535 55.0966C87.4183 54.532 86.9851 53.5169 86.9851 51.788H84.9851C84.9851 53.8031 85.488 55.492 86.7248 56.5914L88.0535 55.0966ZM133.376 56L132.44 56.3515L132.683 57H133.376V56ZM115.046 7.172L115.982 6.82055L115.739 6.172H115.046V7.172ZM114.734 7.172V6.172H113.629L113.739 7.2715L114.734 7.172ZM114.968 11.15L113.969 11.1822L113.969 11.1983L113.97 11.2144L114.968 11.15ZM115.202 16.454L114.203 16.481L114.203 16.4818L115.202 16.454ZM115.28 56V57H116.28V56H115.28ZM108.806 56H107.806V57H108.806V56ZM108.806 0.307996V-0.692004H107.806V0.307996H108.806ZM119.18 0.307996L120.116 -0.0440036L119.873 -0.692004H119.18V0.307996ZM136.34 45.938L135.404 46.29L135.648 46.938H136.34V45.938ZM136.652 45.938V46.938H137.34L137.586 46.2956L136.652 45.938ZM154.124 0.307996V-0.692004H153.436L153.19 -0.0495916L154.124 0.307996ZM164.42 0.307996H165.42V-0.692004H164.42V0.307996ZM164.42 56V57H165.42V56H164.42ZM157.478 56H156.478V57H157.478V56ZM157.556 16.376L158.556 16.4054L158.556 16.4046L157.556 16.376ZM157.79 11.306L158.788 11.3725L158.788 11.3704L157.79 11.306ZM158.024 7.25L159.023 7.29756L159.073 6.25H158.024V7.25ZM157.712 7.25V6.25H157.023L156.778 6.89413L157.712 7.25ZM139.148 56V57H139.837L140.083 56.3559L139.148 56ZM134.312 55.6485L115.982 6.82055L114.11 7.52345L132.44 56.3515L134.312 55.6485ZM115.046 6.172H114.734V8.172H115.046V6.172ZM113.739 7.2715C113.84 8.2806 113.917 9.58208 113.969 11.1822L115.968 11.1178C115.915 9.49392 115.836 8.1434 115.729 7.07249L113.739 7.2715ZM113.97 11.2144C114.073 12.8119 114.151 14.5672 114.203 16.481L116.202 16.427C116.15 14.4928 116.071 12.7121 115.966 11.0856L113.97 11.2144ZM114.203 16.4818C114.254 18.344 114.28 20.2588 114.28 22.226H116.28C116.28 20.2412 116.254 18.308 116.202 16.4262L114.203 16.4818ZM114.28 22.226V56H116.28V22.226H114.28ZM115.28 55H108.806V57H115.28V55ZM109.806 56V0.307996H107.806V56H109.806ZM108.806 1.308H119.18V-0.692004H108.806V1.308ZM118.244 0.659996L135.404 46.29L137.276 45.586L120.116 -0.0440036L118.244 0.659996ZM136.34 46.938H136.652V44.938H136.34V46.938ZM137.586 46.2956L155.058 0.665584L153.19 -0.0495916L135.718 45.5804L137.586 46.2956ZM154.124 1.308H164.42V-0.692004H154.124V1.308ZM163.42 0.307996V56H165.42V0.307996H163.42ZM164.42 55H157.478V57H164.42V55ZM158.478 56V21.758H156.478V56H158.478ZM158.478 21.758C158.478 19.9475 158.504 18.1633 158.556 16.4054L156.557 16.3466C156.504 18.1247 156.478 19.9285 156.478 21.758H158.478ZM158.556 16.4046C158.608 14.5952 158.685 12.918 158.788 11.3725L156.792 11.2395C156.687 12.814 156.609 14.5168 156.557 16.3474L158.556 16.4046ZM158.788 11.3704C158.892 9.75515 158.971 8.39713 159.023 7.29756L157.025 7.20244C156.974 8.28687 156.896 9.63285 156.792 11.2416L158.788 11.3704ZM158.024 6.25H157.712V8.25H158.024V6.25ZM156.778 6.89413L138.214 55.6441L140.083 56.3559L158.647 7.60587L156.778 6.89413ZM139.148 55H133.376V57H139.148V55ZM203.984 15.752L203.462 16.6049L203.469 16.6095L203.984 15.752ZM209.912 22.382L209.008 22.8094L209.013 22.8193L209.017 22.8292L209.912 22.382ZM212.018 36.422V37.422H213.018V36.422H212.018ZM183.392 36.422V35.422H182.37L182.392 36.444L183.392 36.422ZM186.98 47.264L186.243 47.9397L186.25 47.9477L186.258 47.9556L186.98 47.264ZM203.75 50.228L203.975 51.2024L203.984 51.2003L203.992 51.1981L203.75 50.228ZM210.146 48.044H211.146V46.5275L209.752 47.1249L210.146 48.044ZM210.146 54.05L210.548 54.9656L211.146 54.7031V54.05H210.146ZM203.828 56.078L203.632 55.0974L203.62 55.0998L203.608 55.1024L203.828 56.078ZM185.888 54.362L185.417 55.244L185.423 55.2472L185.888 54.362ZM178.79 47.186L177.901 47.6446L177.906 47.6533L177.91 47.6618L178.79 47.186ZM178.556 23.63L177.653 23.2L177.648 23.2119L178.556 23.63ZM185.03 16.064L184.497 15.2177L184.49 15.2223L185.03 16.064ZM186.902 22.226L186.16 21.556L186.159 21.557L186.902 22.226ZM183.548 30.962L182.553 30.8652L182.446 31.962H183.548V30.962ZM204.842 30.962V31.962H205.842V30.962H204.842ZM203.75 24.722L202.825 25.1027L202.825 25.1027L203.75 24.722ZM200.396 20.588L199.815 21.4017L199.831 21.4134L199.848 21.4245L200.396 20.588ZM194.78 14.412C198.221 14.412 201.1 15.1588 203.462 16.6048L204.506 14.8991C201.772 13.2252 198.515 12.412 194.78 12.412V14.412ZM203.469 16.6095C205.892 18.0632 207.736 20.1199 209.008 22.8094L210.816 21.9546C209.383 18.9241 207.276 16.5608 204.498 14.8945L203.469 16.6095ZM209.017 22.8292C210.339 25.4723 211.018 28.6152 211.018 32.288H213.018C213.018 28.3688 212.293 24.9077 210.806 21.9348L209.017 22.8292ZM211.018 32.288V36.422H213.018V32.288H211.018ZM212.018 35.422H183.392V37.422H212.018V35.422ZM182.392 36.444C182.499 41.3224 183.736 45.2048 186.243 47.9397L187.717 46.5883C185.648 44.3312 184.492 40.9856 184.392 36.4L182.392 36.444ZM186.258 47.9556C188.828 50.6402 192.364 51.93 196.73 51.93V49.93C192.776 49.93 189.812 48.7758 187.702 46.5724L186.258 47.9556ZM196.73 51.93C199.438 51.93 201.856 51.6913 203.975 51.2024L203.525 49.2536C201.588 49.7007 199.326 49.93 196.73 49.93V51.93ZM203.992 51.1981C206.129 50.6639 208.312 49.9179 210.54 48.9631L209.752 47.1249C207.612 48.0421 205.53 48.7521 203.507 49.2579L203.992 51.1981ZM209.146 48.044V54.05H211.146V48.044H209.146ZM209.744 53.1344C207.672 54.0441 205.635 54.6969 203.632 55.0974L204.024 57.0586C206.181 56.6271 208.356 55.9279 210.548 54.9656L209.744 53.1344ZM203.608 55.1024C201.62 55.5498 199.227 55.78 196.418 55.78V57.78C199.328 57.78 201.876 57.5422 204.047 57.0536L203.608 55.1024ZM196.418 55.78C192.605 55.78 189.259 55.0034 186.353 53.4768L185.423 55.2472C188.653 56.9446 192.327 57.78 196.418 57.78V55.78ZM186.359 53.4801C183.526 51.9657 181.298 49.7196 179.669 46.7102L177.91 47.6618C179.714 50.9964 182.218 53.5343 185.417 55.2439L186.359 53.4801ZM179.679 46.7274C178.105 43.6788 177.294 39.9192 177.294 35.408H175.294C175.294 40.1528 176.147 44.2452 177.901 47.6446L179.679 46.7274ZM177.294 35.408C177.294 30.9388 178.031 27.1627 179.464 24.0481L177.648 23.2119C176.065 26.6493 175.294 30.7252 175.294 35.408H177.294ZM179.459 24.0599C180.948 20.9336 182.988 18.5623 185.57 16.9057L184.49 15.2223C181.56 17.1017 179.284 19.7744 177.653 23.2001L179.459 24.0599ZM185.563 16.9102C188.194 15.2538 191.255 14.412 194.78 14.412V12.412C190.921 12.412 187.482 13.3382 184.497 15.2178L185.563 16.9102ZM194.702 18.028C191.187 18.028 188.301 19.1833 186.16 21.556L187.644 22.896C189.351 21.0047 191.665 20.028 194.702 20.028V18.028ZM186.159 21.557C184.102 23.8426 182.93 26.9809 182.553 30.8652L184.543 31.0588C184.894 27.4551 185.958 24.7694 187.645 22.895L186.159 21.557ZM183.548 31.962H204.842V29.962H183.548V31.962ZM205.842 30.962C205.842 28.471 205.463 26.2562 204.675 24.3412L202.825 25.1027C203.493 26.7238 203.842 28.669 203.842 30.962H205.842ZM204.675 24.3412C203.875 22.3988 202.631 20.8569 200.944 19.7515L199.848 21.4245C201.177 22.2951 202.169 23.5092 202.825 25.1027L204.675 24.3412ZM200.977 19.7743C199.306 18.5807 197.187 18.028 194.702 18.028V20.028C196.897 20.028 198.574 20.5153 199.815 21.4017L200.977 19.7743Z" fill="white"/>
</svg>
